# xmcd
# 
# Track frame offsets:
#     150
#     17429
#     35957
#     56349
#     74342
#     97664
#     116014
#     137007
#     156447
#     176292
#     193974
#     211744
#     230949
# 
# Disc length: 3359
# 
# Revision: 11
# Processed by: cddbd v1.5.2PL0 Copyright (c) Steve Scherf et al.
# Submitted via: fre:ac v1.0.31
# 
DISCID=b40d1d0d
DTITLE=Various Artist - 80's Pop Hits CD 2
DYEAR=2001
DGENRE=Pop
TTITLE0=Cyndi Lauper - Girls Just Want To Have Fun
TTITLE1=Gregory Abbott - Shake You Down
TTITLE2=Europe - Carrie
TTITLE3=Dan Hill With Vonda Sheppard - Can't We Try
TTITLE4=Luther Vandross - Stop To Love
TTITLE5=Basia - Time And Tide
TTITLE6=Cheap Trick - The Flame
TTITLE7=Bad English - When I See You Smile
TTITLE8=New Kids On The Block - I'll Be Loving You (Forever)
TTITLE9=Bangles - Eternal Flame
TTITLE10=Warrant - Heaven
TTITLE11=Michael Bolton - How Am I Supposed To Live Without You
TTITLE12=Manhattans - Shining Star
EXTD=
EXTT0=
EXTT1=
EXTT2=
EXTT3=
EXTT4=
EXTT5=
EXTT6=
EXTT7=
EXTT8=
EXTT9=
EXTT10=
EXTT11=
EXTT12=
PLAYORDER=
